<?xml version="1.0" encoding="utf-8"?>
<!-- Generator: Adobe Illustrator 24.0.0, SVG Export Plug-In . SVG Version: 6.00 Build 0)  -->
<svg version="1.1" id="Layer_1" xmlns="http://www.w3.org/2000/svg" xmlns:xlink="http://www.w3.org/1999/xlink" x="0px" y="0px"
	 viewBox="0 0 500 500" style="enable-background:new 0 0 500 500;" xml:space="preserve">
<style type="text/css">
	.st0{fill:#FF0000;stroke:#FF0000;stroke-width:4.1281;stroke-linecap:round;stroke-linejoin:round;stroke-miterlimit:10;}
	.st1{fill:#FF0000;stroke:#FF0000;stroke-width:1.376;stroke-linecap:round;stroke-linejoin:round;stroke-miterlimit:10;}
	.st2{fill:none;stroke:#002478;stroke-width:4.8161;stroke-linecap:round;stroke-linejoin:round;stroke-miterlimit:10;}
	.st3{fill:#002478;stroke:#002478;stroke-width:0.688;stroke-linecap:round;stroke-linejoin:round;stroke-miterlimit:10;}
	.st4{fill:#FF0000;}
	.st5{fill:#FF0000;stroke:#FF0000;stroke-width:10.3202;stroke-miterlimit:10;}
	.st6{fill:#FFFFFF;}
	.st7{fill:#002478;stroke:#002478;stroke-width:4.8161;stroke-miterlimit:10;}
	.st8{fill:#FFFFFF;stroke:#FFFFFF;stroke-width:4.8161;stroke-miterlimit:10;}
	.st9{fill:#FCEE21;}
	.st10{fill-rule:evenodd;clip-rule:evenodd;fill:#002478;stroke:#002478;stroke-width:0.958;stroke-miterlimit:10;}
	.st11{fill:#002478;}
</style>
<path class="st0" d="M227.33,63.27"/>
<path class="st1" d="M227.33,55.02"/>
<path class="st2" d="M227.33,205.64"/>
<path class="st2" d="M227.33,246.99"/>
<path class="st2" d="M227.33,173.36"/>
<path class="st3" d="M227.33,241.76"/>
<g>
	<path class="st4" d="M0,501.17c-0.65,0-1.17-0.52-1.17-1.17V0c0-0.65,0.52-1.17,1.17-1.17h500c0.65,0,1.17,0.52,1.17,1.17v500
		c0,0.65-0.52,1.17-1.17,1.17H0z"/>
	<path class="st4" d="M500,0v500H0V0H500 M500-2.34H0c-1.29,0-2.34,1.05-2.34,2.34v500c0,1.29,1.05,2.34,2.34,2.34h500
		c1.29,0,2.34-1.05,2.34-2.34V0C502.34-1.29,501.29-2.34,500-2.34L500-2.34z"/>
</g>
<path class="st5" d="M251.19,365.2"/>
<path class="st5" d="M251.19,364.67"/>
<path class="st5" d="M251.19,364.67"/>
<path class="st5" d="M251.19,365.2"/>
<g>
	<path class="st6" d="M401.5,368.41l0.02-1.74c0-0.54,0.39-54.44-9-117.48c-8.64-58.03-27.54-135.89-68.54-177.27
		c-19.48-19.66-42.49-29.63-68.4-29.63c-26.25,0-49.49,10.06-69.09,29.89c-40.5,40.99-59.01,117.33-67.41,174.15
		c-9.12,61.71-8.6,114.31-8.6,114.84l0.02,1.87l-41.48-3.02l0.19-1.77c0.09-0.82,8.93-82.48,35.94-163.08
		c15.89-47.43,34.88-85.24,56.43-112.39c27.13-34.17,58.43-51.5,93.04-51.5c34.62,0,65.85,17.77,92.84,52.81
		c21.44,27.83,40.26,66.6,55.95,115.23c26.67,82.64,35.17,166.37,35.25,167.2l0.19,1.89H401.5z"/>
	<path class="st6" d="M254.63,33c149.3,0,182.32,333.69,182.32,333.69h-33.71c0,0,3.02-326.12-147.66-326.12
		S108.77,361.18,108.77,361.18l-37.84-2.75C70.93,358.43,105.33,33,254.63,33 M254.63,29.56c-35.16,0-66.91,17.55-94.38,52.15
		c-21.68,27.31-40.76,65.3-56.72,112.91C76.46,275.4,67.59,357.25,67.51,358.07l-0.37,3.53l3.55,0.26l37.84,2.75l3.73,0.27
		l-0.04-3.74c-0.01-0.52-0.52-53.08,8.59-114.67c5.34-36.09,12.89-68.16,22.44-95.33c11.86-33.73,26.82-59.89,44.48-77.77
		c19.26-19.49,42.09-29.37,67.86-29.37c25.43,0,48.03,9.8,67.18,29.12c17.88,18.05,33.07,44.63,45.14,78.99
		c9.72,27.68,17.43,60.41,22.92,97.28c9.37,62.91,8.99,116.73,8.98,117.26l-0.03,3.47l3.47,0h33.71h3.8l-0.37-3.78
		c-0.08-0.84-8.6-84.75-35.32-167.56c-15.75-48.81-34.67-87.76-56.22-115.75C321.5,47.55,289.81,29.56,254.63,29.56L254.63,29.56z"
		/>
</g>
<path class="st5" d="M251.19,368.75"/>
<path class="st7" d="M21.21,419.54c8.29-8.38,21.77-19.23,38.42-19.21c27.14,0.03,33.92,28.89,61.91,33.09
	c32.35,4.85,42.07-30.88,78.98-29.89c34.14,0.92,38.98,31.83,72.58,32.02c34.6,0.19,40.78-32.53,74.72-32.02
	c32.5,0.48,41.54,30.72,74.72,32.02c21.03,0.82,48.51-7.2,58.7-27.75c-0.1-17.34,0-32.02,0-32.02s-27.58,25.63-58.7,27.75
	c-32.6,2.22-40.37-31.51-74.72-32.02c-33.93-0.51-40.12,32.22-74.72,32.02c-33.6-0.19-38.44-31.1-72.58-32.02
	c-36.91-0.99-46.63,34.74-78.98,29.89c-28.07-4.21-32.05-32.8-61.91-33.09c-1.67-0.02-16.86,0.06-28.54,8.15
	c-3.89,2.7-7.4,6.29-9.88,11.06C21.11,409.67,21.11,409.67,21.21,419.54z"/>
<path class="st8" d="M21.21,450.5c8.29-8.38,21.77-19.23,38.42-19.21c27.14,0.03,33.92,28.89,61.91,33.09
	c32.35,4.85,42.07-30.88,78.98-29.89c34.14,0.92,38.98,31.83,72.58,32.02c34.6,0.19,40.78-32.53,74.72-32.02
	c32.5,0.48,41.54,30.72,74.72,32.02c21.03,0.82,48.51-7.2,58.7-27.75c-0.1-17.34,0-32.02,0-32.02s-27.58,25.63-58.7,27.75
	c-32.6,2.22-40.37-31.51-74.72-32.02c-33.93-0.51-40.12,32.22-74.72,32.02c-33.6-0.19-38.44-31.1-72.58-32.02
	c-36.91-0.99-46.63,34.74-78.98,29.89c-28.07-4.21-32.05-32.8-61.91-33.09c-1.67-0.02-16.86,0.06-28.54,8.15
	c-3.89,2.7-7.4,6.29-9.88,11.06C21.11,440.64,21.11,440.64,21.21,450.5z"/>
<path class="st8" d="M21.21,383.69c8.29-8.38,21.77-19.23,38.42-19.21c27.14,0.03,33.92,28.89,61.91,33.09
	c32.35,4.85,42.07-30.88,78.98-29.89c34.14,0.92,38.98,31.83,72.58,32.02c34.6,0.19,40.78-32.53,74.72-32.02
	c32.5,0.48,41.54,30.72,74.72,32.02c21.03,0.82,48.51-7.2,58.7-27.75c-0.1-17.34,0-32.02,0-32.02s-27.58,25.63-58.7,27.75
	c-32.6,2.22-40.37-31.51-74.72-32.02c-33.93-0.51-40.12,32.22-74.72,32.02c-33.6-0.19-38.44-31.1-72.58-32.02
	c-36.91-0.99-46.63,34.74-78.98,29.89c-28.07-4.21-32.05-32.8-61.91-33.09c-1.67-0.02-16.86,0.06-28.54,8.15
	c-3.89,2.7-7.4,6.29-9.88,11.06C21.11,373.82,21.11,373.82,21.21,383.69z"/>
<g>
	<g>
		<ellipse class="st9" cx="256.43" cy="179.36" rx="80.17" ry="80.02"/>
		<path class="st9" d="M256.43,109.65c38.52,0,69.86,31.27,69.86,69.71s-31.34,69.71-69.86,69.71s-69.86-31.27-69.86-69.71
			S217.91,109.65,256.43,109.65 M256.43,89.02c-49.97,0-90.49,40.44-90.49,90.33s40.51,90.33,90.49,90.33s90.49-40.44,90.49-90.33
			S306.4,89.02,256.43,89.02L256.43,89.02z"/>
	</g>
	<g>
		<path class="st10" d="M342.39,272.26c-2.91,0.07-28.55,0.71-33.83,2c-3.75,0.92-10.56-0.71-12.87-1.41
			c-1.18-0.37-2.44,0.29-2.8,1.46c-0.37,1.17,0.29,2.4,1.48,2.77c0.31,0.09,6.21,1.88,11.49,1.88c1.34,0,2.63-0.11,3.79-0.4
			c4.06-0.99,25.1-1.68,32.86-1.86c1.24-0.03,2.22-1.04,2.19-2.27C344.66,273.19,343.62,272.24,342.39,272.26"/>
		<path class="st10" d="M338.4,198.83l-82.4,3.63 M269.84,201.23l11.46-24.26 M281.3,201.34l19.23-23.82 M300.53,200.5l13.31-19.01
			 M315.96,199.82l7.51-13.43 M315.96,199.82l9.19,12.17 M300.53,200.5l12.06,19.4 M281.3,201.34l8.76,15.43 M269.84,201.23
			l5.61,17.56 M176.96,202.46h72.35 M233.23,202.46l-8.75-23.05 M218.16,202.46l-5.03-23.35 M203.76,202.46l-11.59-14.8
			 M203.76,202.46l-11.59,16.63 M218.16,202.46l-12.79,19.28 M233.23,202.46l-9.85,16.63 M273.43,178.83l1.51,0.35"/>
		<path class="st10" d="M325.54,208.8l-5.25-6.96l13.17-0.58C331.6,203.3,328.94,205.98,325.54,208.8z M304.43,202.54l10.45-0.46
			l7.15,9.47c-2.57,1.89-5.45,3.75-8.62,5.43L304.43,202.54L304.43,202.54z M258.25,195.11v-2.32c2.34-2.05,10.23-8.6,18.81-12.09
			l-8.98,19.02l-9.83,0.43V195.11L258.25,195.11z M252.66,189.6c-0.69,0-1.36,0.14-1.97,0.37c-1.75-2.1-8.97-9.69-23.47-12.34
			c-7.32-11.56-9.74-22.07-7.19-31.24c2.1-7.52,7.18-12.59,10.78-15.37c-0.67,6.9-0.1,13.2,1.6,18.91c0.02,0.14,0.07,0.26,0.12,0.39
			c1.37,4.41,3.4,8.47,6.19,12.11c8.81,11.51,22.31,16.03,29.53,17.7c-7.03,4.07-12.41,8.83-13.54,9.87
			C254.07,189.74,253.38,189.6,252.66,189.6L252.66,189.6z M243,221.79c1.63-1.16,2.97-2.36,4.07-3.51v6.36
			C246.26,223.94,244.92,222.9,243,221.79L243,221.79z M180.7,204.67h18.79l-7.91,11.35C185.96,212.09,182.52,207.58,180.7,204.67
			L180.7,204.67z M191.74,190.74l7.45,9.51h-17.57C183.86,197.7,187.33,194.12,191.74,190.74L191.74,190.74z M247.06,195.11v5.14
			h-12.27l-6.82-17.98c11.64,2.53,17.54,8.49,19.1,10.31L247.06,195.11L247.06,195.11z M222.86,181.44l7.14,18.8h-10.02l-4.11-19.12
			c0.31-0.01,0.62-0.03,0.93-0.03C218.95,181.11,220.96,181.24,222.86,181.44L222.86,181.44z M211.37,181.57l4.02,18.67h-10.53
			l-9.47-12.1C200.02,185.13,205.43,182.58,211.37,181.57L211.37,181.57z M201.57,221.21l-0.6-0.27c-2.03-0.75-3.87-1.63-5.58-2.56
			l9.55-13.71h9.08l-10.52,15.86c-0.02,0.04-0.02,0.08-0.05,0.12C202.83,220.83,202.2,221.02,201.57,221.21L201.57,221.21z
			 M210,218.8l9.37-14.13h9.95l-7.25,12.25C217.98,217.05,214.05,217.76,210,218.8L210,218.8z M238.3,219.55
			c-2.99-1.16-6.7-2.13-11.11-2.5l7.33-12.38h12.54v6.02c-0.56,1.19-2.87,5.45-8.75,8.85C238.31,219.54,238.31,219.55,238.3,219.55
			L238.3,219.55z M199.64,160.46c0-7.86,3.87-14.02,11.51-18.28c2.43-1.36,4.88-2.31,6.94-2.96c-0.94,1.8-1.77,3.77-2.37,5.93
			c-2.69,9.58-0.71,20.24,5.84,31.73c-1.53-0.12-3.1-0.2-4.76-0.2c-3.74,0-7.3,0.57-10.67,1.54
			C201.85,172.8,199.64,166.83,199.64,160.46L199.64,160.46z M217.06,120.27c3.66-4.43,8.46-6.63,12.87-5.88
			c2.11,0.36,3.91,1.36,5.31,2.9c0.02,0.03,0.04,0.05,0.06,0.07c0.54,0.6,1.02,1.27,1.42,2.03c-0.82,0.49-1.77,1.11-2.56,1.79
			c-1.32,1.16-2.03,2.75-2.39,3.79c-1.84,1.06-6.22,3.91-10.12,8.77c-1.74,0.34-5.68,1.27-10.02,3.28
			C211.47,133.24,212.01,126.38,217.06,120.27L217.06,120.27z M258.85,107.89c10.27,0,16.2,5.51,18.82,8.78
			c-5.36-0.09-9.5,0.74-9.86,0.81c-0.06,0.01-0.1,0.05-0.15,0.06c-0.08,0.02-0.16,0.03-0.24,0.06c-0.05,0.02-0.08,0.06-0.13,0.08
			c-0.02,0.01-0.04,0.02-0.06,0.04c-0.13,0.07-0.26,0.14-0.37,0.24c-0.05,0.04-0.1,0.05-0.14,0.09c-1.23,1.17-2.44,2.17-3.63,3.07
			c-1.88-4.74-5.37-7.43-9.94-7.43c-6.16,0-9.75,3.08-11.63,5.52c-0.47-1.2-1.04-2.3-1.72-3.3
			C241.8,113.43,247.51,107.89,258.85,107.89L258.85,107.89z M300.07,139.05c-0.1,3.05-1.27,5.87-3.36,8.33
			c-2.52-15.16-12.95-21.52-15.15-22.7c-0.44-1-1.04-1.92-1.8-2.75c-0.25-0.27-0.52-0.53-0.79-0.77c4.87,0.24,10.5,1.38,14.61,4.85
			C297.85,129.61,300.23,134.37,300.07,139.05L300.07,139.05z M306.85,161.61c0,5.42-3.27,10.62-8.34,13.3
			c-2.43-0.38-4.96-0.64-7.59-0.77c3.45-3.88,6.35-10.07,6.35-19.95c0-0.4-0.04-0.76-0.05-1.14c1.44-1.18,2.7-2.46,3.73-3.84
			C303.19,151.26,306.85,155.57,306.85,161.61L306.85,161.61z M324.25,189.58c4.03,2.65,7.12,5.28,9.19,7.25l-13.59,0.6
			L324.25,189.58L324.25,189.58z M314.6,184.3c2.08,0.93,4.04,1.92,5.84,2.94l-5.83,10.42l-9.67,0.42L314.6,184.3L314.6,184.3z
			 M301.42,179.96c3.19,0.69,6.16,1.59,8.94,2.61l-11.04,15.76l-13.19,0.58L301.42,179.96L301.42,179.96z M251.93,157.51
			c4.65,0,8.57-1.2,11.62-2.66c11.19-5.36,18.01-17.42,18.77-24.3c4.01,3.23,10.47,10.46,10.47,23.64c0,9.56-3.03,16.48-8.77,20.01
			c-0.01,0.01-0.02,0.02-0.03,0.03c-1.11,0.14-2.22,0.37-3.33,0.64c-0.06,0.02-0.11,0.03-0.17,0.05c-1.94,0.49-3.86,1.15-5.74,1.95
			l-0.81-0.18c-0.04-0.01-0.08,0-0.12-0.01c-0.05-0.01-0.09-0.04-0.14-0.04c-0.2-0.02-20.36-2.44-31.41-16.9
			c-1.25-1.65-2.34-3.39-3.27-5.22C243.75,156.67,248.09,157.51,251.93,157.51L251.93,157.51z M235.03,135.96
			c3.46,2.85,8.99,6.5,14.81,6.71c3.78,0.12,7.12-1.15,9.96-3.83c7.62-7.18,9.85-13.43,10.49-16.77c1.84,0.31,4.51,1.05,6.14,2.83
			c1.16,1.26,1.64,2.89,1.46,4.97c-0.43,4.94-6.25,16.19-16.31,21c-7.75,3.71-16.18,2.79-25.04-2.71
			C235.47,144.4,234.97,140.33,235.03,135.96L235.03,135.96z M244.56,122.65c1.01-1.61,3.55-4.54,8.6-4.54
			c3.48,0,5.22,2.7,6.09,5.46c-3.05,1.59-5.95,2.24-8.65,1.87C248.08,125.09,246.05,123.9,244.56,122.65L244.56,122.65z
			 M237.15,124.49c0.49-0.43,1.15-0.86,1.77-1.24c1.79,2.21,5.45,5.77,10.99,6.56c0.75,0.11,1.5,0.16,2.26,0.16
			c3.91,0,7.98-1.46,12.16-4.28c-1.31,2.7-3.6,6.13-7.64,9.95c-1.96,1.84-4.16,2.69-6.68,2.61c-6.22-0.22-12.57-5.94-14.6-7.94
			c0.13-1.13,0.28-2.27,0.48-3.44C235.96,126.51,236.37,125.16,237.15,124.49L237.15,124.49z M273.13,199.49l9.73-20.6
			c1.39-0.28,2.78-0.45,4.13-0.45c3.29,0,6.41,0.24,9.39,0.65l-16.21,20.08L273.13,199.49L273.13,199.49z M340.52,199.53
			c0.09-0.25,0.13-0.52,0.12-0.78c0-0.01,0.01-0.01,0-0.02c0-0.04-0.03-0.08-0.03-0.12c-0.02-0.22-0.07-0.43-0.16-0.64
			c-0.04-0.08-0.09-0.16-0.14-0.25c-0.05-0.08-0.08-0.18-0.14-0.25c-0.61-0.78-12.71-15.78-35.64-21.37
			c4.23-3.7,6.81-8.99,6.81-14.49c0-8.46-5.46-14.09-8.12-16.34c0.8-1.93,1.26-3.96,1.33-6.07c0.2-6.03-2.74-12.06-8.06-16.56
			c-3.85-3.24-8.61-4.81-13.15-5.51c-0.02-0.05-0.02-0.1-0.05-0.16c-0.29-0.55-7.36-13.51-24.43-13.51
			c-12.47,0-19.28,5.87-22.13,9.2c-1.74-1.33-3.77-2.25-6.03-2.63c-6.02-1.03-12.42,1.76-17.12,7.45
			c-7.06,8.56-6.7,18.19-6.24,21.88c-6.31,3.98-12.18,10.52-12.18,21.1c0,6.92,2.19,13.41,6.52,19.32
			c-15.72,6.41-26.01,20.64-26.56,21.41c-0.07,0.1-0.12,0.22-0.18,0.33c-0.02,0.04-0.04,0.07-0.06,0.11
			c-0.1,0.24-0.14,0.49-0.15,0.75c0,0.03-0.01,0.05-0.01,0.08s0.01,0.06,0.01,0.08c0.01,0.25,0.05,0.5,0.15,0.74l0.01,0.03
			c0,0,0,0.01,0.01,0.01c0.33,0.8,5.52,12.74,20.08,19.85c-8.72,2.49-18.73,4.75-31.77,4.75c-1.24,0-2.24,0.99-2.24,2.21
			c0,1.22,1.01,2.21,2.24,2.21c16.86,0,28.73-3.59,39.2-6.76c7.6-2.3,14.16-4.29,20.98-4.29c14.15,0,21.24,7.13,21.35,7.24
			l4.71,4.64c0.44,0.43,1.01,0.65,1.59,0.65c0.58,0,1.15-0.22,1.59-0.65c0.88-0.86,0.88-2.27,0-3.13l-1.07-1.05v-33.9
			c0-0.6,0.5-1.09,1.11-1.09c0.61,0,1.1,0.49,1.1,1.09v32.25c0,1.22,1.01,2.21,2.24,2.21c1.24,0,2.24-0.99,2.24-2.21v-9.08
			c1.52,1.59,3.49,3.28,6.06,4.82c1.06,0.63,2.44,0.3,3.08-0.74c0.64-1.04,0.31-2.4-0.75-3.04c-5.55-3.32-7.84-7.48-8.39-8.64v-6.11
			l10.16-0.45l4.9,15.33c0.3,0.94,1.19,1.55,2.14,1.55c0.22,0,0.45-0.03,0.68-0.1c1.18-0.37,1.84-1.61,1.47-2.78l-4.54-14.2
			l6.97-0.31l8.08,14.23c0.41,0.72,1.18,1.13,1.96,1.13c0.37,0,0.75-0.09,1.09-0.28c1.08-0.59,1.47-1.94,0.86-3.01l-6.98-12.29
			l14.27-0.63l10.06,16.18c-0.57,0.25-1.13,0.51-1.71,0.75c-1.15,0.47-1.69,1.76-1.21,2.89c0.36,0.85,1.19,1.36,2.07,1.36
			c0.29,0,0.58-0.05,0.86-0.17c1.48-0.61,2.89-1.27,4.28-1.95c0.04-0.02,0.08-0.03,0.12-0.05c0.01-0.01,0.01-0.01,0.02-0.02
			c16.59-8.22,26.02-21.07,26.44-21.65c0.08-0.11,0.12-0.23,0.17-0.35C340.45,199.68,340.49,199.61,340.52,199.53L340.52,199.53z
			 M199.74,285.11c-13.19-16.73-36-12.44-36.97-12.25c-1.21,0.24-2,1.41-1.76,2.61c0.24,1.19,1.44,1.97,2.64,1.73
			c0.21-0.04,21.04-3.96,32.54,10.63c0.99,1.25,2.12,2.46,3.37,3.57c0.43,0.39,0.97,0.58,1.51,0.58c0.61,0,1.21-0.25,1.66-0.72
			c0.84-0.9,0.77-2.3-0.15-3.12C201.53,287.18,200.57,286.16,199.74,285.11 M294.83,271.63l-0.61-0.59
			c-1.46-1.43-17.36-17.1-29.42-28.98c-0.88-0.86-2.3-0.86-3.17,0c-0.88,0.86-0.88,2.26,0,3.13c12.06,11.89,27.97,27.55,29.42,28.98
			l0.65,0.62c2.31,2.22,8.44,8.13,8.46,12.58c0.01,1.1-0.38,1.99-1.21,2.81c-1.21,1.19-2.54,1.72-3.94,1.74
			c-3.1-0.03-6-2.65-6.63-3.24c-1.29-1.33-2.61-2.48-3.62-3.36c-0.45-0.39-0.81-0.7-1.04-0.92l-9.7-9.56l-3.17,3.13l9.7,9.56
			c0.27,0.27,0.7,0.65,1.23,1.11c2.09,1.82,6.98,6.08,7.09,9.3c0.02,0.8-0.28,1.48-0.95,2.14c-1.04,1.02-2.1,1.5-3.23,1.44
			c-2.31-0.1-4.65-2.3-5.35-3.14l-0.01-0.01c-0.62-0.81-1.32-1.63-2.17-2.47l-11.67-11.51l-3.17,3.13l11.67,11.51
			c1.9,1.87,3.05,3.58,3.42,5.07c0.37,1.5-0.06,2.74-1.39,4.05c-2.21,2.18-5.51,0.61-6.62-0.03c-0.54-0.91-1.19-1.77-1.97-2.54
			c-2.71-2.67-9.67-10.39-9.74-10.47c-0.82-0.92-2.24-1-3.16-0.18c-0.93,0.81-1.01,2.21-0.19,3.12c0.29,0.32,7.11,7.89,9.92,10.66
			c1.16,1.14,1.94,2.57,2.16,3.92c0.23,1.44-0.18,2.66-1.26,3.73c-0.45,0.44-0.96,0.6-1.63,0.63c-1.5-0.01-5.05-1.06-11.86-7.99
			c-0.86-0.88-2.28-0.89-3.17-0.05c-0.89,0.85-0.91,2.25-0.05,3.13c6.14,6.24,11.06,9.3,15.04,9.33h0.06c1.84,0,3.49-0.67,4.77-1.93
			c1.71-1.69,2.61-3.81,2.62-6.08c0.75,0.16,1.53,0.26,2.32,0.26c2.02,0,4.13-0.62,5.93-2.39c1.77-1.74,2.71-3.73,2.81-5.85
			c0.78,0.25,1.59,0.46,2.46,0.5c0.13,0.01,0.27,0.01,0.4,0.01c2.27,0,4.41-0.94,6.24-2.74c1.54-1.52,2.33-3.39,2.27-5.41
			c-0.02-0.55-0.11-1.1-0.24-1.65c0.58,0.11,1.19,0.18,1.81,0.19h0.14c2.63,0,5-1.02,7.05-3.04c1.68-1.66,2.54-3.67,2.52-5.96
			C304.6,281.05,297.75,274.44,294.83,271.63"/>
		<path class="st10" d="M249.32,305.83c-2.43,5.96-10.3,13.56-14.03,13.56c-0.47,0-0.69-0.14-0.87-0.35
			c-1.72-1.94,1.15-7.31,6.98-13.04c2.61-2.57,5.19-4.11,6.89-4.11c0.58,0,1.03,0.18,1.45,0.58
			C250.05,302.8,250.06,303.98,249.32,305.83L249.32,305.83z M221,312.84c-2.81-2.77,2.35-10.33,8.7-16.6
			c0.96-0.94,2.21-2.18,3.58-3.37c0.06-0.05,0.13-0.08,0.18-0.15c0.01-0.01,0.01-0.01,0.02-0.02c2.26-1.93,4.78-3.68,6.7-3.68
			c0.67,0,1.2,0.23,1.72,0.74c0.83,0.82,1.21,1.71,1.21,2.79c-0.01,4.33-6.1,10.27-8.7,12.81l-0.63,0.61
			c-0.32,0.32-0.66,0.67-1.03,1.04c-2.49,2.52-6.67,6.74-9.71,6.74C222.28,313.76,221.63,313.47,221,312.84L221,312.84z
			 M210.68,304.39c-2.61-2.57,2.28-9.7,8.27-15.62c6-5.9,9.69-7.62,11.94-5.57c0.85,0.78,2.59,2.38-0.72,6.5
			c-1.23,1.08-2.45,2.24-3.64,3.41c-2.71,2.67-6.04,6.36-8.3,10.17C216.35,304.85,213.11,306.79,210.68,304.39L210.68,304.39z
			 M202.44,295.24c-1.14-1.13,0.14-3.71,1.01-5.15c1.69-2.8,4.29-5.53,5.69-6.91l0.57-0.57c1.89-1.88,5.06-5.02,6.98-5.02
			c0.24,0,0.54,0.05,0.93,0.41c0.4,0.37,0.57,0.81,0.58,1.41c0.04,2.72-3.32,7.26-6.65,10.55l-0.8,0.8
			c-1.74,1.76-4.98,5.03-7.1,5.03C203.35,295.79,202.94,295.73,202.44,295.24L202.44,295.24z M248.28,297.48
			c-0.69,0-1.37,0.12-2.05,0.29c0.83-1.7,1.36-3.46,1.37-5.21c0.01-2.27-0.84-4.26-2.52-5.92c-1.35-1.34-3.04-2.04-4.9-2.04
			c-1.19,0-2.38,0.29-3.58,0.77c-0.07-2.52-1.47-4.33-2.67-5.43c-3.57-3.26-7.71-2.19-11.27-0.02c0.01-0.19,0.03-0.39,0.03-0.58
			c-0.02-1.79-0.7-3.37-1.98-4.56c-1.13-1.07-2.52-1.63-4.02-1.63c-3.79,0-7.32,3.51-10.16,6.33l-0.56,0.56
			c-1.55,1.52-4.43,4.56-6.37,7.77c-3.4,5.63-2.05,8.84-0.33,10.53c1.23,1.21,2.74,1.85,4.38,1.85c0.76,0,1.5-0.17,2.23-0.41
			c-0.81,2.85-0.55,5.56,1.63,7.71c1.64,1.62,3.63,2.43,5.77,2.42c0.82,0,1.67-0.13,2.52-0.37c-0.33,2.36,0.18,4.58,2.02,6.4
			c1.49,1.47,3.24,2.21,5.22,2.21c2.27,0,4.5-1.03,6.56-2.45c-0.48,2.24-0.19,4.4,1.42,6.21c1.08,1.22,2.55,1.87,4.26,1.87h0
			c6.58,0,15.58-9.91,18.19-16.34c1.84-4.52,0.66-6.95-0.65-8.19C251.58,298.1,250,297.48,248.28,297.48L248.28,297.48z M235.48,255
			c0-9.64,15.38-20.63,22.77-25.92c1.6-1.15,2.87-2.05,3.71-2.74c5.07-4.14,15.74-6.61,28.53-6.61c9.87,0,18.03,4.49,23.13,8.25
			c6.4,4.73,26.61,4.8,28.83,4.81c1.24,0,2.24-0.99,2.24-2.21c0-1.22-1.01-2.21-2.24-2.21h-0.21c-8.06,0-22.04-1.05-25.93-3.92
			c-5.65-4.17-14.71-9.13-25.82-9.13c-14.01,0-25.45,2.78-31.39,7.62c-0.74,0.6-2.01,1.51-3.49,2.57
			c-8.58,6.13-24.53,17.53-24.62,29.4c-0.1,1.25-0.84,12.06,4.12,17.41c1.88,2.03,4.29,3.06,7.16,3.06c2.53,0,4.57-0.79,6.07-2.34
			c3.23-3.34,2.94-9.27,2.7-14.03c-0.09-1.85-0.22-4.39,0.03-4.94c2.62-3.31,8.28-8.22,12.13-8.22c1.24,0,2.24-0.99,2.24-2.21
			c0-1.22-1.01-2.21-2.25-2.21c-6.43,0-13.49,7.16-15.67,9.93c-1.27,1.61-1.15,4.24-0.97,7.87c0.18,3.71,0.43,8.79-1.47,10.76
			c-0.4,0.41-1.13,0.97-2.82,0.97c-1.6,0-2.82-0.51-3.85-1.61c-3.17-3.41-3.21-11.36-2.96-14.13
			C235.47,255.13,235.48,255.07,235.48,255"/>
	</g>
</g>
<g>
	<path class="st11" d="M297.48,275.47c-0.17-0.01-0.33-0.08-0.45-0.19l-14.46-13.96l-21.04-18.43l-8.44,4.49l-3.75,6.95l-0.42,14.71
		c-0.01,0.21-0.11,0.4-0.27,0.53l-5.76,4.4c-0.12,0.09-0.27,0.14-0.42,0.14c-0.14,0-0.28-0.04-0.4-0.13l-8.19-5.8
		c-0.18-0.13-0.29-0.34-0.29-0.56l-0.07-16.9c0-0.12,0.03-0.24,0.09-0.35l4.82-8.26c0.05-0.09,0.12-0.16,0.2-0.22l18.17-12.6
		l5.89-4.57c0.05-0.04,0.1-0.07,0.16-0.09l15.14-6.19c0.08-0.03,0.17-0.05,0.26-0.05h24.08c0.13,0,0.26,0.04,0.38,0.11l15.65,10.21
		h25.94c0.18,0,0.36,0.07,0.49,0.21s0.2,0.31,0.2,0.49l-0.69,44.72c0,0.34-0.25,0.62-0.59,0.67l-4.82,0.69c0,0-25.55,0.7-25.55,0.7
		C313.32,276.16,297.48,275.47,297.48,275.47z"/>
	<path class="st11" d="M302.32,219.06l15.82,10.32h26.14l-0.69,44.72l-4.82,0.69l-25.46,0.69l-15.82-0.69l-14.46-13.96l-21.42-18.77
		l-9.04,4.82l-3.92,7.28l-0.43,14.87l-5.76,4.4l-8.19-5.8l-0.07-16.9l4.82-8.26l18.17-12.6l5.92-4.6l15.14-6.19H302.32
		 M302.32,217.68h-24.08c-0.18,0-0.36,0.03-0.52,0.1l-15.14,6.19c-0.12,0.05-0.22,0.11-0.32,0.19l-5.89,4.57l-18.13,12.58
		c-0.17,0.11-0.3,0.26-0.4,0.44l-4.82,8.26c-0.12,0.21-0.19,0.45-0.19,0.7l0.07,16.9c0,0.44,0.22,0.86,0.58,1.12l8.19,5.8
		c0.24,0.17,0.52,0.25,0.8,0.25c0.29,0,0.59-0.09,0.83-0.28l5.76-4.4c0.33-0.25,0.53-0.64,0.54-1.05l0.42-14.54l3.57-6.62l7.84-4.17
		l20.68,18.12l14.44,13.94c0.24,0.23,0.56,0.37,0.9,0.38l15.82,0.69c0.02,0,0.04,0,0.06,0c0.01,0,0.02,0,0.04,0l25.46-0.69
		c0.05,0,0.11-0.01,0.16-0.01l4.82-0.69c0.67-0.1,1.17-0.66,1.18-1.34l0.69-44.72c0.01-0.37-0.14-0.72-0.4-0.99
		c-0.26-0.26-0.61-0.41-0.98-0.41h-25.74l-15.48-10.1C302.85,217.76,302.59,217.68,302.32,217.68L302.32,217.68z"/>
</g>
<polygon class="st11" points="214.26,276.85 205.31,284.42 200.5,295.43 207.38,298.18 210.82,304.37 215.63,307.81 219.76,313.31
	225.27,315.38 228.71,314.69 231.46,315.38 234.21,320.88 240.4,318.13 248.49,308.95 250.72,300.93 243.16,300.93 245.22,292.67
	241.78,287.86 235.59,290.61 232.83,281.67 224.58,282.35 219.76,283.04 217.01,276.16 "/>
</svg>
