<?xml version="1.0" encoding="utf-8"?>
<!-- Generator: Adobe Illustrator 24.0.0, SVG Export Plug-In . SVG Version: 6.00 Build 0)  -->
<svg version="1.1" id="Layer_1" xmlns="http://www.w3.org/2000/svg" xmlns:xlink="http://www.w3.org/1999/xlink" x="0px" y="0px"
	 viewBox="0 0 500 500" style="enable-background:new 0 0 500 500;" xml:space="preserve">
<style type="text/css">
	.st0{fill:#FF0000;stroke:#FF0000;stroke-width:10.6612;stroke-miterlimit:10;}
	.st1{fill:#FF0000;}
	.st2{fill:#FF0000;stroke:#FF0000;stroke-width:4.9752;stroke-miterlimit:10;}
	.st3{fill:#FF0000;stroke:#FF0000;stroke-width:4.9752;stroke-linecap:round;stroke-linejoin:round;stroke-miterlimit:10;}
	.st4{fill:#FF0000;stroke:#FF0000;stroke-width:0.7107;stroke-linecap:round;stroke-linejoin:round;stroke-miterlimit:10;}
	.st5{fill-rule:evenodd;clip-rule:evenodd;fill:#FF0000;stroke:#FF0000;stroke-width:0.9897;stroke-miterlimit:10;}
</style>
<g>
	<path class="st0" d="M250.35,369.02"/>
	<path class="st0" d="M250.35,368.46"/>
	<path class="st0" d="M250.35,368.46"/>
	<path class="st0" d="M250.35,369.02"/>
	<g>
		<path class="st1" d="M405.62,372.33l0.02-1.79c0-0.55,0.4-56.24-9.29-121.36c-8.92-59.95-28.45-140.38-70.81-183.13
			c-20.12-20.31-43.9-30.61-70.66-30.61c-27.11,0-51.12,10.39-71.37,30.88c-41.83,42.34-60.96,121.17-69.63,179.85
			c-9.43,63.75-8.89,118.14-8.89,118.68l0.02,1.93l-42.85-3.12l0.19-1.83c0.09-0.84,9.23-85.2,37.13-168.47
			c16.42-48.99,36.03-88.06,58.3-116.1c28.02-35.3,60.36-53.2,96.11-53.2c35.76,0,68.03,18.35,95.9,54.55
			c22.14,28.75,41.59,68.8,57.8,119.03c27.55,85.37,36.33,171.86,36.41,172.73l0.19,1.95H405.62z"/>
		<path class="st1" d="M253.89,25.84c154.23,0,188.35,344.71,188.35,344.71h-34.83c0,0,3.12-336.89-152.54-336.89
			S103.22,364.86,103.22,364.86l-39.09-2.84C64.12,362.02,99.66,25.84,253.89,25.84 M253.89,22.28c-36.32,0-69.12,18.13-97.5,53.87
			C134,104.37,114.29,143.61,97.8,192.8c-27.96,83.45-37.12,168-37.21,168.85l-0.39,3.65l3.66,0.27l39.09,2.84l3.86,0.28l-0.05-3.87
			c-0.01-0.54-0.54-54.84,8.88-118.45c5.52-37.28,13.31-70.41,23.18-98.48c12.25-34.84,27.71-61.87,45.95-80.34
			c19.9-20.14,43.48-30.34,70.1-30.34c26.27,0,49.62,10.12,69.4,30.09c18.48,18.65,34.18,46.13,46.64,81.65
			c10.04,28.61,18.01,62.44,23.67,100.54c9.67,64.98,9.27,120.48,9.27,121.03l-0.03,3.59h3.59h34.83h3.92l-0.39-3.9
			c-0.09-0.87-8.89-87.55-36.49-173.1c-16.27-50.43-35.81-90.66-58.08-119.57C322.97,40.87,290.23,22.28,253.89,22.28L253.89,22.28z
			"/>
	</g>
	<path class="st0" d="M250.35,372.68"/>
	<path class="st2" d="M12.77,457.13c8.56-8.65,22.48-19.87,39.69-19.85c28.04,0.03,35.04,29.84,63.95,34.18
		c33.42,5.01,43.46-31.9,81.59-30.87c35.27,0.95,40.27,32.88,74.98,33.08c35.74,0.2,42.13-33.6,77.18-33.08
		c33.57,0.5,42.91,31.74,77.18,33.08c21.73,0.85,50.11-7.44,60.64-28.67c-0.1-17.91,0-33.08,0-33.08s-28.49,26.48-60.64,28.67
		c-33.67,2.29-41.71-32.55-77.18-33.08c-35.05-0.52-41.44,33.28-77.18,33.08c-34.71-0.2-39.71-32.13-74.98-33.08
		c-38.13-1.03-48.17,35.89-81.59,30.87c-28.99-4.35-33.11-33.89-63.95-34.18c-1.72-0.02-17.42,0.06-29.49,8.42
		c-4.02,2.79-7.64,6.49-10.21,11.43C12.67,446.94,12.67,446.94,12.77,457.13z"/>
	<path class="st2" d="M12.77,388.11c8.56-8.65,22.48-19.87,39.69-19.85c28.04,0.03,35.04,29.84,63.95,34.18
		c33.42,5.01,43.46-31.9,81.59-30.87c35.27,0.95,40.27,32.88,74.98,33.08c35.74,0.2,42.13-33.6,77.18-33.08
		c33.57,0.5,42.91,31.74,77.18,33.08c21.73,0.85,50.11-7.44,60.64-28.67c-0.1-17.91,0-33.08,0-33.08s-28.49,26.48-60.64,28.67
		c-33.67,2.29-41.71-32.55-77.18-33.08c-35.05-0.52-41.44,33.28-77.18,33.08c-34.71-0.2-39.71-32.13-74.98-33.08
		c-38.13-1.03-48.17,35.89-81.59,30.87c-28.99-4.35-33.11-33.89-63.95-34.18c-1.72-0.02-17.42,0.06-29.49,8.42
		c-4.02,2.79-7.64,6.49-10.21,11.43C12.67,377.92,12.67,377.92,12.77,388.11z"/>
	<path class="st3" d="M256.26,204.18"/>
	<path class="st3" d="M266.16,246.9"/>
	<path class="st3" d="M229.25,170.84"/>
	<path class="st4" d="M299.61,241.5"/>
	<path class="st5" d="M344.56,281.53c-3,0.07-29.5,0.73-34.95,2.06c-3.87,0.95-10.91-0.73-13.3-1.46c-1.22-0.38-2.52,0.3-2.9,1.5
		c-0.38,1.2,0.3,2.48,1.52,2.86c0.32,0.1,6.41,1.94,11.87,1.94c1.38,0,2.72-0.12,3.91-0.41c4.2-1.02,25.93-1.74,33.95-1.92
		c1.28-0.03,2.29-1.08,2.26-2.34C346.9,282.5,345.82,281.51,344.56,281.53"/>
	<path class="st5" d="M340.44,205.67l-85.12,3.75 M269.61,208.16l11.84-25.06 M281.45,208.27l19.86-24.61 M301.31,207.4l13.75-19.63
		 M317.26,206.7l7.76-13.87 M317.26,206.7l9.49,12.57 M301.31,207.4l12.46,20.05 M281.45,208.27l9.05,15.94 M269.61,208.16
		l5.8,18.14 M173.66,209.43h74.74 M231.79,209.43l-9.04-23.81 M216.22,209.43l-5.19-24.13 M201.34,209.43l-11.97-15.29
		 M201.34,209.43l-11.97,17.18 M216.22,209.43l-13.21,19.92 M231.79,209.43l-10.17,17.18 M273.31,185.02l1.56,0.36"/>
	<path class="st5" d="M327.15,215.97l-5.43-7.19l13.6-0.6C333.41,210.3,330.66,213.07,327.15,215.97z M305.34,209.51l10.79-0.48
		l7.39,9.78c-2.65,1.95-5.63,3.87-8.9,5.61L305.34,209.51L305.34,209.51z M257.64,201.83v-2.4c2.42-2.12,10.57-8.89,19.43-12.49
		l-9.28,19.65l-10.15,0.45V201.83L257.64,201.83z M251.86,196.14c-0.72,0-1.4,0.15-2.03,0.38c-1.8-2.17-9.27-10.01-24.25-12.75
		c-7.56-11.94-10.07-22.8-7.43-32.28c2.16-7.77,7.42-13.01,11.13-15.88c-0.69,7.13-0.11,13.64,1.65,19.53
		c0.02,0.14,0.07,0.27,0.12,0.4c1.41,4.55,3.51,8.75,6.39,12.51c9.1,11.89,23.05,16.56,30.51,18.29
		c-7.26,4.21-12.82,9.12-13.99,10.19C253.32,196.29,252.61,196.14,251.86,196.14L251.86,196.14z M241.88,229.4
		c1.68-1.2,3.07-2.44,4.2-3.63v6.57C245.25,231.62,243.86,230.54,241.88,229.4L241.88,229.4z M177.53,211.71h19.41l-8.17,11.73
		C182.96,219.37,179.41,214.72,177.53,211.71L177.53,211.71z M188.93,197.31l7.7,9.83h-18.15
		C180.79,204.51,184.37,200.81,188.93,197.31L188.93,197.31z M246.08,201.83v5.31H233.4l-7.05-18.57
		c12.03,2.62,18.12,8.77,19.73,10.65L246.08,201.83L246.08,201.83z M221.08,187.72l7.38,19.43H218.1l-4.25-19.75
		c0.32-0.01,0.64-0.03,0.97-0.03C217.04,187.37,219.11,187.5,221.08,187.72L221.08,187.72z M209.21,187.85l4.15,19.29h-10.87
		l-9.79-12.5C197.48,191.52,203.07,188.89,209.21,187.85L209.21,187.85z M199.08,228.8l-0.62-0.28c-2.1-0.78-4-1.68-5.76-2.65
		l9.87-14.16h9.38l-10.87,16.38c-0.02,0.04-0.02,0.08-0.05,0.12C200.38,228.41,199.74,228.6,199.08,228.8L199.08,228.8z
		 M207.8,226.3l9.68-14.6h10.28l-7.49,12.66C216.04,224.5,211.98,225.24,207.8,226.3L207.8,226.3z M237.03,227.08
		c-3.09-1.2-6.92-2.2-11.48-2.58l7.57-12.79h12.96v6.22c-0.57,1.23-2.97,5.63-9.04,9.14C237.04,227.07,237.03,227.08,237.03,227.08
		L237.03,227.08z M197.09,166.04c0-8.12,4-14.48,11.89-18.88c2.51-1.4,5.04-2.38,7.17-3.06c-0.97,1.86-1.83,3.89-2.45,6.12
		c-2.78,9.89-0.74,20.91,6.04,32.78c-1.58-0.13-3.21-0.2-4.92-0.2c-3.86,0-7.54,0.59-11.02,1.59
		C199.37,178.78,197.09,172.62,197.09,166.04L197.09,166.04z M215.08,124.52c3.78-4.58,8.74-6.85,13.3-6.07
		c2.18,0.37,4.04,1.41,5.49,3c0.02,0.03,0.04,0.05,0.07,0.07c0.55,0.62,1.05,1.31,1.47,2.09c-0.85,0.5-1.83,1.15-2.64,1.85
		c-1.37,1.2-2.1,2.84-2.47,3.92c-1.9,1.1-6.43,4.04-10.45,9.06c-1.8,0.35-5.87,1.32-10.35,3.39
		C209.31,137.91,209.87,130.83,215.08,124.52L215.08,124.52z M258.26,111.73c10.6,0,16.73,5.69,19.44,9.07
		c-5.54-0.1-9.82,0.76-10.18,0.84c-0.06,0.01-0.1,0.05-0.16,0.06c-0.08,0.02-0.16,0.03-0.24,0.07c-0.05,0.02-0.08,0.06-0.13,0.08
		c-0.02,0.01-0.04,0.02-0.06,0.04c-0.14,0.07-0.27,0.15-0.38,0.24c-0.05,0.04-0.1,0.05-0.15,0.09c-1.27,1.21-2.52,2.24-3.75,3.17
		c-1.94-4.9-5.55-7.67-10.27-7.67c-6.37,0-10.07,3.18-12.01,5.7c-0.48-1.23-1.07-2.38-1.78-3.41
		C240.64,117.45,246.54,111.73,258.26,111.73L258.26,111.73z M300.84,143.92c-0.11,3.16-1.31,6.07-3.47,8.6
		c-2.6-15.66-13.38-22.23-15.65-23.45c-0.45-1.03-1.07-1.98-1.86-2.84c-0.26-0.28-0.54-0.55-0.82-0.8
		c5.03,0.25,10.85,1.42,15.1,5.01C298.55,134.17,301,139.09,300.84,143.92L300.84,143.92z M307.84,167.22
		c0,5.6-3.38,10.97-8.62,13.74c-2.51-0.39-5.12-0.66-7.84-0.8c3.56-4.01,6.56-10.4,6.56-20.61c0-0.41-0.04-0.78-0.05-1.18
		c1.49-1.21,2.79-2.54,3.85-3.97C304.06,156.54,307.84,160.99,307.84,167.22L307.84,167.22z M325.82,196.12
		c4.17,2.74,7.36,5.45,9.5,7.49l-14.04,0.62L325.82,196.12L325.82,196.12z M315.84,190.66c2.15,0.96,4.17,1.98,6.03,3.03
		l-6.02,10.77l-9.99,0.44L315.84,190.66L315.84,190.66z M302.23,186.19c3.3,0.71,6.36,1.64,9.23,2.69l-11.41,16.28l-13.62,0.6
		L302.23,186.19L302.23,186.19z M251.1,162.99c4.81,0,8.86-1.24,12-2.75c11.56-5.53,18.61-17.99,19.39-25.1
		c4.15,3.34,10.81,10.81,10.81,24.42c0,9.87-3.13,17.03-9.06,20.67c-0.01,0.01-0.02,0.02-0.03,0.03c-1.15,0.15-2.3,0.38-3.44,0.66
		c-0.06,0.02-0.12,0.03-0.17,0.05c-2,0.51-3.99,1.19-5.93,2.01l-0.84-0.19c-0.04-0.01-0.08,0-0.12-0.01
		c-0.05-0.01-0.09-0.04-0.14-0.04c-0.21-0.02-21.03-2.52-32.44-17.46c-1.29-1.7-2.42-3.5-3.38-5.39
		C242.65,162.13,247.14,162.99,251.1,162.99L251.1,162.99z M233.65,140.73c3.58,2.95,9.29,6.72,15.3,6.93
		c3.91,0.13,7.35-1.19,10.29-3.96c7.87-7.42,10.17-13.88,10.84-17.32c1.9,0.32,4.66,1.09,6.35,2.92c1.2,1.3,1.7,2.98,1.51,5.13
		c-0.44,5.1-6.46,16.72-16.85,21.7c-8.01,3.83-16.71,2.88-25.87-2.8C234.11,149.44,233.58,145.24,233.65,140.73L233.65,140.73z
		 M243.5,126.98c1.04-1.66,3.66-4.69,8.88-4.69c3.6,0,5.39,2.79,6.29,5.64c-3.15,1.64-6.14,2.32-8.94,1.93
		C247.13,129.5,245.04,128.27,243.5,126.98L243.5,126.98z M235.83,128.88c0.51-0.44,1.19-0.89,1.83-1.28
		c1.85,2.29,5.63,5.96,11.36,6.78c0.77,0.11,1.55,0.17,2.33,0.17c4.04,0,8.25-1.5,12.56-4.42c-1.35,2.79-3.72,6.34-7.89,10.28
		c-2.02,1.9-4.29,2.78-6.9,2.69c-6.43-0.23-12.98-6.13-15.09-8.2c0.13-1.17,0.29-2.35,0.5-3.55
		C234.61,130.97,235.04,129.57,235.83,128.88L235.83,128.88z M273.01,206.36l10.05-21.28c1.44-0.29,2.87-0.46,4.26-0.46
		c3.4,0,6.63,0.25,9.7,0.67l-16.75,20.75L273.01,206.36L273.01,206.36z M342.62,206.4c0.09-0.26,0.14-0.53,0.13-0.81
		c0-0.01,0.01-0.01,0-0.02c0-0.04-0.03-0.08-0.03-0.12c-0.02-0.23-0.08-0.44-0.17-0.66c-0.04-0.09-0.09-0.17-0.14-0.26
		c-0.05-0.09-0.08-0.18-0.15-0.26c-0.63-0.8-13.13-16.31-36.82-22.08c4.37-3.83,7.03-9.29,7.03-14.97c0-8.74-5.64-14.56-8.38-16.88
		c0.83-1.99,1.3-4.1,1.37-6.27c0.21-6.23-2.83-12.46-8.33-17.11c-3.97-3.35-8.9-4.97-13.59-5.69c-0.02-0.05-0.02-0.11-0.05-0.16
		c-0.3-0.57-7.6-13.95-25.24-13.95c-12.89,0-19.91,6.07-22.87,9.5c-1.8-1.37-3.89-2.33-6.23-2.72c-6.22-1.06-12.83,1.82-17.68,7.69
		c-7.29,8.84-6.92,18.79-6.45,22.6c-6.52,4.11-12.58,10.87-12.58,21.8c0,7.15,2.26,13.86,6.74,19.96
		c-16.24,6.63-26.86,21.32-27.43,22.12c-0.08,0.11-0.13,0.23-0.18,0.34c-0.02,0.04-0.04,0.07-0.06,0.11
		c-0.1,0.25-0.15,0.51-0.16,0.77c0,0.03-0.01,0.05-0.01,0.08c0,0.03,0.01,0.06,0.01,0.09c0.01,0.26,0.05,0.52,0.15,0.77l0.01,0.03
		c0,0,0,0.01,0.01,0.01c0.34,0.82,5.7,13.16,20.74,20.5c-9,2.57-19.35,4.91-32.82,4.91c-1.28,0-2.32,1.02-2.32,2.28
		c0,1.26,1.04,2.28,2.32,2.28c17.42,0,29.68-3.71,40.49-6.98c7.85-2.38,14.63-4.43,21.67-4.43c14.61,0,21.94,7.36,22.06,7.48
		l4.87,4.79c0.45,0.45,1.05,0.67,1.64,0.67c0.6,0,1.19-0.22,1.64-0.67c0.91-0.89,0.91-2.34,0-3.23l-1.1-1.09v-35.02
		c0-0.62,0.51-1.12,1.14-1.12c0.63,0,1.14,0.5,1.14,1.12v33.32c0,1.26,1.04,2.28,2.32,2.28c1.28,0,2.32-1.02,2.32-2.28v-9.38
		c1.57,1.64,3.61,3.39,6.26,4.98c1.1,0.65,2.52,0.31,3.19-0.77c0.66-1.08,0.32-2.48-0.78-3.14c-5.73-3.43-8.1-7.73-8.67-8.93v-6.31
		l10.49-0.46l5.06,15.84c0.31,0.98,1.23,1.6,2.21,1.6c0.23,0,0.47-0.03,0.7-0.11c1.22-0.38,1.9-1.66,1.51-2.87l-4.69-14.67l7.2-0.32
		l8.35,14.7c0.42,0.75,1.21,1.17,2.03,1.17c0.38,0,0.77-0.09,1.13-0.29c1.12-0.61,1.52-2.01,0.89-3.11l-7.21-12.7l14.74-0.65
		l10.39,16.71c-0.59,0.26-1.17,0.53-1.77,0.78c-1.18,0.49-1.74,1.82-1.25,2.99c0.37,0.88,1.23,1.41,2.14,1.41
		c0.3,0,0.6-0.05,0.89-0.17c1.53-0.63,2.99-1.31,4.42-2.01c0.04-0.02,0.08-0.03,0.12-0.05c0.01-0.01,0.01-0.01,0.02-0.02
		c17.13-8.49,26.88-21.76,27.32-22.37c0.08-0.11,0.12-0.24,0.18-0.36C342.55,206.55,342.6,206.48,342.62,206.4L342.62,206.4z
		 M197.19,294.8C183.56,277.52,160,281.95,159,282.14c-1.26,0.25-2.07,1.45-1.82,2.69c0.25,1.23,1.48,2.03,2.73,1.79
		c0.22-0.04,21.73-4.09,33.62,10.98c1.02,1.29,2.19,2.54,3.48,3.69c0.45,0.4,1,0.6,1.56,0.6c0.63,0,1.26-0.25,1.71-0.75
		c0.86-0.93,0.79-2.38-0.15-3.23C199.04,296.94,198.05,295.89,197.19,294.8 M295.42,280.88l-0.63-0.61
		c-1.51-1.48-17.93-17.66-30.39-29.94c-0.91-0.89-2.37-0.89-3.28,0c-0.91,0.89-0.91,2.34,0,3.23
		c12.46,12.28,28.89,28.47,30.39,29.94l0.67,0.64c2.38,2.3,8.72,8.4,8.74,12.99c0.01,1.14-0.39,2.06-1.25,2.91
		c-1.25,1.23-2.63,1.78-4.07,1.8c-3.2-0.03-6.2-2.73-6.85-3.35c-1.34-1.37-2.69-2.56-3.74-3.47c-0.46-0.4-0.84-0.73-1.07-0.96
		l-10.02-9.87l-3.28,3.23l10.02,9.87c0.28,0.28,0.72,0.67,1.28,1.15c2.16,1.88,7.22,6.29,7.32,9.61c0.02,0.82-0.29,1.53-0.98,2.21
		c-1.07,1.05-2.16,1.55-3.34,1.49c-2.39-0.11-4.8-2.38-5.53-3.24l-0.01-0.01c-0.64-0.84-1.36-1.68-2.24-2.55l-12.06-11.89
		l-3.28,3.23l12.06,11.89c1.96,1.93,3.16,3.69,3.54,5.24c0.38,1.54-0.06,2.83-1.43,4.19c-2.28,2.25-5.69,0.63-6.84-0.03
		c-0.56-0.94-1.22-1.83-2.04-2.63c-2.8-2.76-9.99-10.73-10.06-10.81c-0.85-0.95-2.31-1.03-3.27-0.19c-0.96,0.83-1.04,2.28-0.19,3.22
		c0.3,0.33,7.35,8.15,10.25,11.01c1.2,1.18,2.01,2.65,2.23,4.05c0.24,1.49-0.19,2.75-1.31,3.85c-0.47,0.45-0.99,0.62-1.68,0.65
		c-1.55-0.01-5.22-1.1-12.25-8.25c-0.89-0.91-2.36-0.92-3.28-0.05c-0.92,0.88-0.94,2.33-0.05,3.23c6.34,6.45,11.43,9.6,15.54,9.63
		h0.06c1.9,0,3.6-0.69,4.93-1.99c1.77-1.75,2.7-3.93,2.71-6.28c0.78,0.17,1.58,0.27,2.4,0.27c2.09,0,4.27-0.64,6.12-2.47
		c1.83-1.8,2.8-3.86,2.9-6.04c0.8,0.26,1.64,0.47,2.54,0.52c0.14,0.01,0.28,0.01,0.42,0.01c2.34,0,4.56-0.97,6.44-2.83
		c1.59-1.57,2.4-3.5,2.34-5.59c-0.02-0.57-0.11-1.14-0.25-1.7c0.6,0.12,1.23,0.19,1.87,0.2h0.14c2.72,0,5.17-1.06,7.28-3.14
		c1.74-1.72,2.62-3.79,2.61-6.16C305.52,290.61,298.44,283.79,295.42,280.88"/>
	<path class="st5" d="M248.41,316.21c-2.51,6.16-10.64,14.01-14.5,14.01c-0.49,0-0.71-0.14-0.9-0.36
		c-1.77-2.01,1.19-7.55,7.21-13.47c2.7-2.66,5.36-4.24,7.12-4.24c0.6,0,1.06,0.18,1.5,0.6C249.17,313.08,249.18,314.3,248.41,316.21
		L248.41,316.21z M219.16,323.45c-2.9-2.86,2.42-10.67,8.99-17.14c0.99-0.97,2.29-2.25,3.7-3.48c0.06-0.05,0.13-0.09,0.19-0.15
		c0.01-0.01,0.01-0.01,0.02-0.02c2.33-2,4.93-3.8,6.92-3.8c0.69,0,1.24,0.23,1.78,0.77c0.85,0.85,1.25,1.76,1.25,2.88
		c-0.01,4.48-6.3,10.61-8.99,13.23l-0.65,0.63c-0.33,0.33-0.68,0.69-1.06,1.07c-2.58,2.6-6.89,6.96-10.03,6.96
		C220.48,324.4,219.81,324.1,219.16,323.45L219.16,323.45z M208.49,314.72c-2.7-2.66,2.35-10.02,8.55-16.14
		c6.2-6.1,10.01-7.87,12.33-5.75c0.88,0.8,2.68,2.46-0.75,6.72c-1.27,1.11-2.53,2.31-3.77,3.53c-2.8,2.76-6.24,6.57-8.57,10.51
		C214.35,315.2,211.01,317.2,208.49,314.72L208.49,314.72z M199.98,305.27c-1.18-1.16,0.15-3.83,1.04-5.32
		c1.75-2.89,4.43-5.71,5.87-7.14l0.59-0.59c1.96-1.94,5.23-5.19,7.21-5.19c0.25,0,0.56,0.05,0.96,0.42c0.41,0.38,0.59,0.83,0.6,1.46
		c0.04,2.81-3.43,7.5-6.87,10.89l-0.83,0.83c-1.8,1.82-5.14,5.2-7.33,5.2C200.92,305.84,200.5,305.78,199.98,305.27L199.98,305.27z
		 M247.33,307.59c-0.71,0-1.42,0.13-2.12,0.3c0.86-1.76,1.41-3.58,1.42-5.38c0.01-2.35-0.87-4.41-2.6-6.12
		c-1.39-1.38-3.14-2.11-5.06-2.11c-1.23,0-2.46,0.3-3.69,0.8c-0.07-2.6-1.52-4.48-2.76-5.61c-3.69-3.37-7.96-2.27-11.65-0.02
		c0.01-0.2,0.03-0.4,0.03-0.6c-0.02-1.85-0.73-3.48-2.04-4.71c-1.17-1.1-2.61-1.68-4.15-1.68c-3.91,0-7.57,3.62-10.5,6.53
		l-0.58,0.58c-1.6,1.57-4.58,4.71-6.58,8.03c-3.51,5.81-2.12,9.13-0.34,10.88c1.27,1.25,2.83,1.91,4.52,1.91
		c0.78,0,1.55-0.18,2.3-0.42c-0.83,2.95-0.57,5.75,1.68,7.96c1.7,1.67,3.75,2.51,5.96,2.5c0.85,0,1.72-0.13,2.61-0.38
		c-0.34,2.44,0.18,4.73,2.09,6.61c1.54,1.52,3.35,2.28,5.39,2.29c2.34,0,4.65-1.06,6.78-2.53c-0.5,2.31-0.19,4.54,1.46,6.42
		c1.11,1.26,2.64,1.93,4.4,1.93h0c6.8,0,16.09-10.24,18.79-16.88c1.9-4.67,0.68-7.18-0.67-8.46
		C250.74,308.23,249.11,307.58,247.33,307.59L247.33,307.59z M234.11,263.7c0-9.96,15.89-21.32,23.52-26.77
		c1.65-1.18,2.96-2.12,3.84-2.83c5.24-4.27,16.26-6.83,29.47-6.83c10.2,0,18.62,4.63,23.89,8.52c6.61,4.88,27.49,4.96,29.79,4.96
		c1.28,0,2.32-1.03,2.31-2.29c0-1.26-1.04-2.28-2.32-2.28h-0.22c-8.33,0-22.77-1.09-26.78-4.05c-5.84-4.3-15.2-9.43-26.67-9.43
		c-14.47,0-26.29,2.87-32.43,7.88c-0.76,0.62-2.08,1.56-3.61,2.65c-8.86,6.34-25.34,18.11-25.43,30.37
		c-0.11,1.29-0.86,12.46,4.26,17.98c1.94,2.1,4.43,3.16,7.4,3.16c2.61,0,4.72-0.81,6.28-2.42c3.34-3.45,3.04-9.58,2.79-14.5
		c-0.1-1.91-0.22-4.53,0.03-5.11c2.7-3.42,8.55-8.49,12.53-8.49c1.28,0,2.32-1.02,2.32-2.28c0-1.26-1.04-2.28-2.32-2.28
		c-6.64,0-13.94,7.4-16.19,10.25c-1.32,1.66-1.18,4.38-1,8.13c0.19,3.83,0.45,9.08-1.52,11.12c-0.42,0.43-1.17,1-2.92,1
		c-1.66,0-2.92-0.53-3.97-1.67c-3.28-3.53-3.32-11.73-3.06-14.6C234.1,263.84,234.11,263.77,234.11,263.7"/>
</g>
</svg>
